<?xml version="1.0" standalone="no"?>
<!DOCTYPE svg PUBLIC "-//W3C//DTD SVG 20010904//EN"
 "http://www.w3.org/TR/2001/REC-SVG-20010904/DTD/svg10.dtd">
<svg version="1.0" xmlns="http://www.w3.org/2000/svg"
 width="202.000000pt" height="249.000000pt" viewBox="0 0 202.000000 249.000000"
 preserveAspectRatio="xMidYMid meet">

<g transform="translate(0.000000,249.000000) scale(0.100000,-0.100000)"
fill="#000000" stroke="none">
<path d="M499 2351 c-38 -38 -39 -40 -39 -114 l0 -75 -119 -4 c-132 -3 -153
-12 -199 -78 -53 -79 -53 -72 -50 -946 l3 -809 26 -56 c16 -34 42 -68 64 -85
l38 -29 291 -3 291 -3 -76 78 c-109 113 -169 220 -199 356 l-13 57 -82 0 c-98
0 -118 11 -113 60 l3 35 91 3 91 3 6 84 c5 74 32 174 72 267 6 16 -5 18 -127
20 l-133 3 -3 35 c-6 55 10 60 184 60 l153 0 33 41 c83 104 260 211 403 245
93 22 260 22 344 0 53 -13 119 -38 199 -73 10 -4 12 51 10 288 -3 285 -4 295
-27 342 -12 26 -39 60 -59 75 -33 25 -44 27 -144 30 l-108 4 0 75 c0 74 -1 76
-39 114 -36 37 -42 39 -98 39 -100 0 -143 -50 -143 -165 l0 -65 -145 0 -145 0
0 65 c0 115 -43 165 -143 165 -56 0 -62 -2 -98 -39z m135 -67 c24 -24 23 -319
-1 -346 -20 -22 -46 -23 -67 -2 -13 13 -16 44 -16 178 0 113 4 166 12 174 17
17 54 15 72 -4z m574 4 c8 -8 12 -61 12 -174 0 -134 -3 -165 -16 -178 -20 -21
-43 -20 -66 1 -16 14 -18 34 -18 170 0 87 5 163 10 174 12 22 59 26 78 7z
m203 -628 c22 -12 26 -59 7 -78 -17 -17 -1069 -17 -1086 0 -7 7 -12 24 -12 38
0 14 5 31 12 38 16 16 1049 17 1079 2z"/>
<path d="M1175 1411 c-148 -24 -268 -85 -369 -186 -81 -80 -126 -151 -164
-257 -24 -65 -27 -87 -27 -208 0 -115 3 -146 23 -205 33 -99 92 -194 166 -267
76 -75 148 -120 248 -156 95 -34 267 -42 372 -18 218 51 409 232 476 451 104
341 -91 712 -431 820 -85 26 -217 38 -294 26z m129 -287 c13 -13 16 -42 16
-165 l0 -149 198 0 c163 0 201 -3 220 -16 24 -17 29 -53 10 -72 -17 -17 -499
-17 -516 0 -17 17 -17 389 0 406 17 17 54 15 72 -4z"/>
</g>
</svg>
